<?xml version="1.0" standalone="no"?>
<!DOCTYPE svg PUBLIC "-//W3C//DTD SVG 20010904//EN"
 "http://www.w3.org/TR/2001/REC-SVG-20010904/DTD/svg10.dtd">
<svg version="1.0" xmlns="http://www.w3.org/2000/svg"
 width="48.000000pt" height="48.000000pt" viewBox="0 0 48.000000 48.000000"
 preserveAspectRatio="xMidYMid meet">

<g transform="translate(0.000000,48.000000) scale(0.100000,-0.100000)"
fill="#000000" stroke="none">
<path d="M204 395 c-12 -9 -14 -14 -6 -15 8 0 10 -5 6 -12 -5 -8 -2 -9 9 -5
24 9 21 -7 -8 -41 -14 -17 -25 -33 -25 -36 0 -3 11 -6 25 -6 16 0 25 -6 25
-15 0 -9 -9 -15 -22 -15 -16 0 -19 -3 -11 -11 12 -12 7 -39 -8 -39 -5 0 -18
15 -29 33 -21 33 -28 31 -10 -4 7 -13 8 -25 1 -37 -10 -16 -10 -16 -11 1 0 20
-16 23 -23 4 -7 -20 3 -32 47 -56 43 -24 57 -20 37 10 -7 12 -10 23 -7 26 3 3
15 -11 27 -32 l22 -37 13 30 c6 16 17 33 24 37 9 6 9 2 0 -15 -14 -27 -8 -34
22 -27 33 9 68 44 62 62 -8 21 -24 19 -24 -2 -1 -17 -1 -17 -11 0 -5 9 -7 23
-3 30 4 6 -2 4 -13 -6 -19 -16 -21 -17 -27 -1 -3 9 -1 23 5 31 7 7 9 16 5 20
-3 3 -6 1 -6 -5 0 -7 -9 -12 -20 -12 -11 0 -20 7 -20 15 0 9 9 15 25 15 33 0
32 13 -2 39 -16 11 -23 21 -16 21 6 0 26 -15 44 -32 20 -21 30 -26 26 -15 -4
10 -7 28 -7 39 0 25 -52 78 -77 78 -11 0 -28 -7 -39 -15z m-29 -225 c3 -5 1
-10 -4 -10 -6 0 -11 5 -11 10 0 6 2 10 4 10 3 0 8 -4 11 -10z m145 0 c0 -5 -5
-10 -11 -10 -5 0 -7 5 -4 10 3 6 8 10 11 10 2 0 4 -4 4 -10z"/>
<path d="M187 339 c7 -7 15 -10 18 -7 3 3 -2 9 -12 12 -14 6 -15 5 -6 -5z"/>
<path d="M155 289 c-4 -6 -5 -12 -2 -15 2 -3 7 2 10 11 7 17 1 20 -8 4z"/>
<path d="M331 254 c0 -11 3 -14 6 -6 3 7 2 16 -1 19 -3 4 -6 -2 -5 -13z"/>
</g>
</svg>
